<svg xmlns="http://www.w3.org/2000/svg" width="48" height="48" viewBox="0 0 48 48">
    <path fill="#000" fill-rule="evenodd" d="M24 26.83L13.415 37.414c-.1.094-.201.183-.317.258-.229.15-.488.253-.757.3-.12.02-.15.019-.272.027h-.136c-.121-.008-.152-.007-.272-.028-.224-.039-.442-.116-.64-.228-.159-.089-.305-.2-.434-.329-.39-.389-.604-.932-.585-1.482.006-.182.038-.363.093-.537.069-.217.175-.422.312-.603.074-.097.097-.118.18-.206L21.172 24 10.586 13.414c-.083-.088-.106-.109-.18-.205-.137-.182-.243-.387-.312-.604-.083-.26-.111-.538-.083-.81.07-.688.505-1.304 1.13-1.601.165-.078.34-.134.52-.165.224-.039.455-.039.679 0 .314.054.614.185.869.377.096.074.117.097.205.18l10.587 10.586 10.586-10.586c.088-.083.109-.106.206-.18.181-.137.386-.243.603-.312.26-.083.538-.112.81-.083.226.023.448.085.654.183.165.078.318.179.456.299.521.454.774 1.165.656 1.847-.054.314-.184.614-.377.869-.074.096-.097.117-.18.205L26.83 24.001l10.586 10.586c.083.088.106.109.18.206.137.181.244.386.313.603.055.174.086.355.092.537.019.55-.196 1.093-.585 1.482-.128.13-.275.24-.434.33-.198.111-.416.188-.64.227-.12.02-.15.02-.272.028h-.136c-.121-.008-.152-.007-.272-.028-.27-.046-.528-.149-.757-.299-.116-.075-.216-.164-.317-.258L24 26.83z"/>
</svg>
